ffmpeg started on 2025-06-07 at 18:22:23
Report written to "D:\Convert\FFMetrics\reports\ssim_report-6.txt"
Log level: 32
Command line:
ffmpeg -hide_banner -nostdin -i "G:\\\xc0\xed\xe8\xec\xe5\\\xce\xed\xe3\xee\xe8\xed\xe3\xe8\\!_36_\xce\xf1\xe5\xed\xfc_2024\\DreamCast\\\xdf \xf1\xf2\xe0\xed\xf3 \xe7\xeb\xee\xe4\xe5\xe9\xea\xee\xe9, \xea\xee\xf2\xee\xf0\xe0\xff \xe2\xee\xe9\xe4\xb8\xf2 \xe2 \xe8\xf1\xf2\xee\xf0\xe8\xfe\\[DC] Rekishi ni Nokoru Akujo ni Naruzo - 08_Telegram_HEVC.mkv" -i "G:\\\xc0\xed\xe8\xec\xe5\\\xce\xed\xe3\xee\xe8\xed\xe3\xe8\\!_36_\xce\xf1\xe5\xed\xfc_2024\\DreamCast\\\xdf \xf1\xf2\xe0\xed\xf3 \xe7\xeb\xee\xe4\xe5\xe9\xea\xee\xe9, \xea\xee\xf2\xee\xf0\xe0\xff \xe2\xee\xe9\xe4\xb8\xf2 \xe2 \xe8\xf1\xf2\xee\xf0\xe8\xfe\\[DC] Rekishi ni Nokoru Akujo ni Naruzo - 08_Telegram.mp4" -lavfi "[0:v]settb=AVTB,setpts=PTS-STARTPTS,format=pix_fmts=yuv420p10,fps=24000/1001,scale=1920:1080:flags=bicubic[main];[1:v]settb=AVTB,setpts=PTS-STARTPTS,format=pix_fmts=yuv420p,fps=24000/1001,scale=1920:1080:flags=bicubic[ref];[main][ref]ssim=eof_action=endall:stats_file='D\\:/Convert/FFMetrics/logs/ssim_logfile-6.txt'" -f null -
Input #0, matroska,webm, from 'G:\Аниме\Онгоинги\!_36_Осень_2024\DreamCast\Я стану злодейкой, которая войдёт в историю\[DC] Rekishi ni Nokoru Akujo ni Naruzo - 08_Telegram_HEVC.mkv':
  Metadata:
    COMPATIBLE_BRANDS: isomiso2avc1mp41
    MAJOR_BRAND     : isom
    MINOR_VERSION   : 512
    ENCODER         : Lavf61.7.100
  Duration: 00:23:46.69, start: -0.021000, bitrate: 772 kb/s
  Stream #0:0: Video: hevc (Main 10), yuv420p10le(tv, bt709, progressive), 1920x1080 [SAR 1:1 DAR 16:9], 23.98 fps, 23.98 tbr, 1k tbn (default)
      Metadata:
        HANDLER_NAME    : VideoHandler
        VENDOR_ID       : [0][0][0][0]
        ENCODER         : Lavc61.19.100 libx265
        BPS             : 575178
        DURATION        : 00:23:46.591708333
        NUMBER_OF_FRAMES: 34204
        NUMBER_OF_BYTES : 102568016
        _STATISTICS_WRITING_APP: mkvpropedit v66.0.0 ('Josie') 64-bit
        _STATISTICS_WRITING_DATE_UTC: 2025-06-06 10:51:12
        _STATISTICS_TAGS: BPS DURATION NUMBER_OF_FRAMES NUMBER_OF_BYTES
  Stream #0:1: Audio: aac (LC), 48000 Hz, stereo, fltp (default)
      Metadata:
        HANDLER_NAME    : SoundHandler
        VENDOR_ID       : [0][0][0][0]
        ENCODER         : Lavc61.19.100 aac
        BPS             : 193466
        DURATION        : 00:23:46.688000000
        NUMBER_OF_FRAMES: 66877
        NUMBER_OF_BYTES : 34501971
        _STATISTICS_WRITING_APP: mkvpropedit v66.0.0 ('Josie') 64-bit
        _STATISTICS_WRITING_DATE_UTC: 2025-06-06 10:51:12
        _STATISTICS_TAGS: BPS DURATION NUMBER_OF_FRAMES NUMBER_OF_BYTES
Input #1, mov,mp4,m4a,3gp,3g2,mj2, from 'G:\Аниме\Онгоинги\!_36_Осень_2024\DreamCast\Я стану злодейкой, которая войдёт в историю\[DC] Rekishi ni Nokoru Akujo ni Naruzo - 08_Telegram.mp4':
  Metadata:
    major_brand     : isom
    minor_version   : 512
    compatible_brands: isomiso2avc1mp41
    encoder         : Lavf61.1.100
  Duration: 00:23:46.66, start: 0.000000, bitrate: 3208 kb/s
  Stream #1:0[0x1](und): Video: h264 (High) (avc1 / 0x31637661), yuv420p(tv, bt709, progressive), 1920x1080 [SAR 1:1 DAR 16:9], 3061 kb/s, 23.98 fps, 23.98 tbr, 24k tbn (default)
      Metadata:
        handler_name    : VideoHandler
        vendor_id       : [0][0][0][0]
        encoder         : Lavc61.3.100 h264_qsv
  Stream #1:1[0x2](und): Audio: aac (HE-AACv2) (mp4a / 0x6134706D), 48000 Hz, stereo, fltp, 144 kb/s (default)
      Metadata:
        handler_name    : SoundHandler
        vendor_id       : [0][0][0][0]
Stream mapping:
  Stream #0:0 (hevc) -> settb:default
  Stream #1:0 (h264) -> settb:default
  ssim:default -> Stream #0:0 (wrapped_avframe)
  Stream #0:1 -> #0:1 (aac (native) -> pcm_s16le (native))
Output #0, null, to 'pipe:':
  Metadata:
    COMPATIBLE_BRANDS: isomiso2avc1mp41
    MAJOR_BRAND     : isom
    MINOR_VERSION   : 512
    encoder         : Lavf61.7.100
  Stream #0:0: Video: wrapped_avframe, yuv420p10le(tv, bt709, progressive), 1920x1080 [SAR 1:1 DAR 16:9], q=2-31, 200 kb/s, 23.98 fps, 23.98 tbn
      Metadata:
        encoder         : Lavc61.19.100 wrapped_avframe
  Stream #0:1: Audio: pcm_s16le, 48000 Hz, stereo, s16, 1536 kb/s (default)
      Metadata:
        HANDLER_NAME    : SoundHandler
        VENDOR_ID       : [0][0][0][0]
        _STATISTICS_TAGS: BPS DURATION NUMBER_OF_FRAMES NUMBER_OF_BYTES
        BPS             : 193466
        DURATION        : 00:23:46.688000000
        NUMBER_OF_FRAMES: 66877
        NUMBER_OF_BYTES : 34501971
        _STATISTICS_WRITING_APP: mkvpropedit v66.0.0 ('Josie') 64-bit
        _STATISTICS_WRITING_DATE_UTC: 2025-06-06 10:51:12
        encoder         : Lavc61.19.100 pcm_s16le
frame=  167 fps=0.0 q=-0.0 size=N/A time=00:00:06.96 bitrate=N/A speed=13.6x    frame=  427 fps=412 q=-0.0 size=N/A time=00:00:17.80 bitrate=N/A speed=17.2x    frame=  664 fps=431 q=-0.0 size=N/A time=00:00:27.69 bitrate=N/A speed=  18x    frame=  939 fps=454 q=-0.0 size=N/A time=00:00:39.16 bitrate=N/A speed=18.9x    frame= 1173 fps=455 q=-0.0 size=N/A time=00:00:48.92 bitrate=N/A speed=  19x    frame= 1422 fps=458 q=-0.0 size=N/A time=00:00:59.30 bitrate=N/A speed=19.1x    frame= 1662 fps=460 q=-0.0 size=N/A time=00:01:09.31 bitrate=N/A speed=19.2x    frame= 1894 fps=460 q=-0.0 size=N/A time=00:01:18.99 bitrate=N/A speed=19.2x    frame= 2103 fps=453 q=-0.0 size=N/A time=00:01:27.71 bitrate=N/A speed=18.9x    frame= 2299 fps=446 q=-0.0 size=N/A time=00:01:35.88 bitrate=N/A speed=18.6x    frame= 2526 fps=445 q=-0.0 size=N/A time=00:01:45.35 bitrate=N/A speed=18.6x    frame= 2745 fps=444 q=-0.0 size=N/A time=00:01:54.48 bitrate=N/A speed=18.5x    frame= 2942 fps=438 q=-0.0 size=N/A time=00:02:02.70 bitrate=N/A speed=18.3x    frame= 3164 fps=438 q=-0.0 size=N/A time=00:02:11.96 bitrate=N/A speed=18.3x    frame= 3365 fps=435 q=-0.0 size=N/A time=00:02:20.34 bitrate=N/A speed=18.1x    frame= 3571 fps=432 q=-0.0 size=N/A time=00:02:28.94 bitrate=N/A speed=  18x    frame= 3760 fps=429 q=-0.0 size=N/A time=00:02:36.82 bitrate=N/A speed=17.9x    frame= 4027 fps=434 q=-0.0 size=N/A time=00:02:47.95 bitrate=N/A speed=18.1x    frame= 4263 fps=435 q=-0.0 size=N/A time=00:02:57.80 bitrate=N/A speed=18.1x    frame= 4543 fps=441 q=-0.0 size=N/A time=00:03:09.48 bitrate=N/A speed=18.4x    frame= 4821 fps=445 q=-0.0 size=N/A time=00:03:21.07 bitrate=N/A speed=18.6x    frame= 5092 fps=449 q=-0.0 size=N/A time=00:03:32.37 bitrate=N/A speed=18.7x    frame= 5376 fps=453 q=-0.0 size=N/A time=00:03:44.22 bitrate=N/A speed=18.9x    frame= 5665 fps=458 q=-0.0 size=N/A time=00:03:56.27 bitrate=N/A speed=19.1x    frame= 5938 fps=461 q=-0.0 size=N/A time=00:04:07.66 bitrate=N/A speed=19.2x    frame= 6226 fps=464 q=-0.0 size=N/A time=00:04:19.67 bitrate=N/A speed=19.4x    frame= 6482 fps=465 q=-0.0 size=N/A time=00:04:30.35 bitrate=N/A speed=19.4x    frame= 6736 fps=467 q=-0.0 size=N/A time=00:04:40.94 bitrate=N/A speed=19.5x    frame= 7020 fps=469 q=-0.0 size=N/A time=00:04:52.79 bitrate=N/A speed=19.6x    frame= 7278 fps=471 q=-0.0 size=N/A time=00:05:03.55 bitrate=N/A speed=19.6x    frame= 7535 fps=471 q=-0.0 size=N/A time=00:05:14.27 bitrate=N/A speed=19.7x    frame= 7818 fps=474 q=-0.0 size=N/A time=00:05:26.07 bitrate=N/A speed=19.7x    frame= 8098 fps=475 q=-0.0 size=N/A time=00:05:37.75 bitrate=N/A speed=19.8x    frame= 8364 fps=477 q=-0.0 size=N/A time=00:05:48.84 bitrate=N/A speed=19.9x    frame= 8622 fps=477 q=-0.0 size=N/A time=00:05:59.60 bitrate=N/A speed=19.9x    frame= 8896 fps=479 q=-0.0 size=N/A time=00:06:11.03 bitrate=N/A speed=  20x    frame= 9132 fps=478 q=-0.0 size=N/A time=00:06:20.88 bitrate=N/A speed=19.9x    frame= 9337 fps=476 q=-0.0 size=N/A time=00:06:29.43 bitrate=N/A speed=19.9x    frame= 9534 fps=474 q=-0.0 size=N/A time=00:06:37.64 bitrate=N/A speed=19.8x    frame= 9753 fps=472 q=-0.0 size=N/A time=00:06:46.78 bitrate=N/A speed=19.7x    frame=10015 fps=473 q=-0.0 size=N/A time=00:06:57.70 bitrate=N/A speed=19.7x    frame=10280 fps=474 q=-0.0 size=N/A time=00:07:08.76 bitrate=N/A speed=19.8x    frame=10558 fps=476 q=-0.0 size=N/A time=00:07:20.35 bitrate=N/A speed=19.8x    frame=10835 fps=477 q=-0.0 size=N/A time=00:07:31.90 bitrate=N/A speed=19.9x    frame=11121 fps=479 q=-0.0 size=N/A time=00:07:43.83 bitrate=N/A speed=  20x    frame=11397 fps=480 q=-0.0 size=N/A time=00:07:55.34 bitrate=N/A speed=  20x    frame=11628 fps=479 q=-0.0 size=N/A time=00:08:04.98 bitrate=N/A speed=  20x    frame=11857 fps=478 q=-0.0 size=N/A time=00:08:14.53 bitrate=N/A speed=19.9x    frame=12082 fps=478 q=-0.0 size=N/A time=00:08:23.92 bitrate=N/A speed=19.9x    frame=12339 fps=478 q=-0.0 size=N/A time=00:08:34.63 bitrate=N/A speed=19.9x    frame=12603 fps=479 q=-0.0 size=N/A time=00:08:45.65 bitrate=N/A speed=  20x    frame=12851 fps=479 q=-0.0 size=N/A time=00:08:55.99 bitrate=N/A speed=  20x    frame=13095 fps=479 q=-0.0 size=N/A time=00:09:06.17 bitrate=N/A speed=  20x    frame=13336 fps=478 q=-0.0 size=N/A time=00:09:16.22 bitrate=N/A speed=  20x    frame=13621 fps=480 q=-0.0 size=N/A time=00:09:28.10 bitrate=N/A speed=  20x    frame=13909 fps=481 q=-0.0 size=N/A time=00:09:40.12 bitrate=N/A speed=20.1x    frame=14170 fps=482 q=-0.0 size=N/A time=00:09:51.00 bitrate=N/A speed=20.1x    frame=14438 fps=482 q=-0.0 size=N/A time=00:10:02.18 bitrate=N/A speed=20.1x    frame=14715 fps=483 q=-0.0 size=N/A time=00:10:13.73 bitrate=N/A speed=20.2x    frame=14928 fps=482 q=-0.0 size=N/A time=00:10:22.62 bitrate=N/A speed=20.1x    frame=15155 fps=481 q=-0.0 size=N/A time=00:10:32.08 bitrate=N/A speed=20.1x    frame=15433 fps=482 q=-0.0 size=N/A time=00:10:43.68 bitrate=N/A speed=20.1x    frame=15648 fps=481 q=-0.0 size=N/A time=00:10:52.65 bitrate=N/A speed=20.1x    frame=15904 fps=481 q=-0.0 size=N/A time=00:11:03.32 bitrate=N/A speed=20.1x    frame=16164 fps=482 q=-0.0 size=N/A time=00:11:14.17 bitrate=N/A speed=20.1x    frame=16445 fps=483 q=-0.0 size=N/A time=00:11:25.89 bitrate=N/A speed=20.1x    frame=16690 fps=483 q=-0.0 size=N/A time=00:11:36.11 bitrate=N/A speed=20.1x    frame=16935 fps=483 q=-0.0 size=N/A time=00:11:46.33 bitrate=N/A speed=20.1x    frame=17213 fps=483 q=-0.0 size=N/A time=00:11:57.92 bitrate=N/A speed=20.2x    frame=17475 fps=484 q=-0.0 size=N/A time=00:12:08.85 bitrate=N/A speed=20.2x    frame=17752 fps=485 q=-0.0 size=N/A time=00:12:20.40 bitrate=N/A speed=20.2x    frame=18042 fps=485 q=-0.0 size=N/A time=00:12:32.50 bitrate=N/A speed=20.2x    frame=18314 fps=486 q=-0.0 size=N/A time=00:12:43.84 bitrate=N/A speed=20.3x    frame=18600 fps=487 q=-0.0 size=N/A time=00:12:55.77 bitrate=N/A speed=20.3x    frame=18874 fps=488 q=-0.0 size=N/A time=00:13:07.20 bitrate=N/A speed=20.3x    frame=19147 fps=488 q=-0.0 size=N/A time=00:13:18.58 bitrate=N/A speed=20.4x    frame=19409 fps=488 q=-0.0 size=N/A time=00:13:29.51 bitrate=N/A speed=20.4x    frame=19683 fps=489 q=-0.0 size=N/A time=00:13:40.94 bitrate=N/A speed=20.4x    frame=19978 fps=490 q=-0.0 size=N/A time=00:13:53.24 bitrate=N/A speed=20.4x    frame=20269 fps=491 q=-0.0 size=N/A time=00:14:05.38 bitrate=N/A speed=20.5x    frame=20556 fps=492 q=-0.0 size=N/A time=00:14:17.35 bitrate=N/A speed=20.5x    frame=20817 fps=492 q=-0.0 size=N/A time=00:14:28.24 bitrate=N/A speed=20.5x    frame=21103 fps=493 q=-0.0 size=N/A time=00:14:40.17 bitrate=N/A speed=20.5x    frame=21376 fps=493 q=-0.0 size=N/A time=00:14:51.55 bitrate=N/A speed=20.6x    frame=21639 fps=493 q=-0.0 size=N/A time=00:15:02.52 bitrate=N/A speed=20.6x    frame=21890 fps=493 q=-0.0 size=N/A time=00:15:12.99 bitrate=N/A speed=20.6x    frame=22143 fps=493 q=-0.0 size=N/A time=00:15:23.54 bitrate=N/A speed=20.6x    frame=22394 fps=493 q=-0.0 size=N/A time=00:15:34.01 bitrate=N/A speed=20.6x    frame=22669 fps=494 q=-0.0 size=N/A time=00:15:45.48 bitrate=N/A speed=20.6x    frame=22947 fps=494 q=-0.0 size=N/A time=00:15:57.08 bitrate=N/A speed=20.6x    frame=23196 fps=494 q=-0.0 size=N/A time=00:16:07.46 bitrate=N/A speed=20.6x    frame=23446 fps=494 q=-0.0 size=N/A time=00:16:17.89 bitrate=N/A speed=20.6x    frame=23719 fps=494 q=-0.0 size=N/A time=00:16:29.27 bitrate=N/A speed=20.6x    frame=23995 fps=495 q=-0.0 size=N/A time=00:16:40.79 bitrate=N/A speed=20.6x    frame=24254 fps=495 q=-0.0 size=N/A time=00:16:51.59 bitrate=N/A speed=20.6x    frame=24511 fps=495 q=-0.0 size=N/A time=00:17:02.31 bitrate=N/A speed=20.6x    frame=24773 fps=495 q=-0.0 size=N/A time=00:17:13.24 bitrate=N/A speed=20.6x    frame=25045 fps=495 q=-0.0 size=N/A time=00:17:24.58 bitrate=N/A speed=20.7x    frame=25305 fps=495 q=-0.0 size=N/A time=00:17:35.42 bitrate=N/A speed=20.7x    frame=25582 fps=496 q=-0.0 size=N/A time=00:17:46.98 bitrate=N/A speed=20.7x    frame=25815 fps=495 q=-0.0 size=N/A time=00:17:56.70 bitrate=N/A speed=20.7x    frame=26075 fps=495 q=-0.0 size=N/A time=00:18:07.54 bitrate=N/A speed=20.7x    frame=26338 fps=495 q=-0.0 size=N/A time=00:18:18.51 bitrate=N/A speed=20.7x    frame=26619 fps=496 q=-0.0 size=N/A time=00:18:30.23 bitrate=N/A speed=20.7x    frame=26892 fps=496 q=-0.0 size=N/A time=00:18:41.62 bitrate=N/A speed=20.7x    frame=27172 fps=497 q=-0.0 size=N/A time=00:18:53.29 bitrate=N/A speed=20.7x    frame=27449 fps=497 q=-0.0 size=N/A time=00:19:04.85 bitrate=N/A speed=20.7x    frame=27699 fps=497 q=-0.0 size=N/A time=00:19:15.27 bitrate=N/A speed=20.7x    frame=27949 fps=497 q=-0.0 size=N/A time=00:19:25.70 bitrate=N/A speed=20.7x    frame=28224 fps=497 q=-0.0 size=N/A time=00:19:37.17 bitrate=N/A speed=20.7x    frame=28487 fps=497 q=-0.0 size=N/A time=00:19:48.14 bitrate=N/A speed=20.7x    frame=28728 fps=497 q=-0.0 size=N/A time=00:19:58.19 bitrate=N/A speed=20.7x    frame=29004 fps=497 q=-0.0 size=N/A time=00:20:09.70 bitrate=N/A speed=20.7x    frame=29293 fps=498 q=-0.0 size=N/A time=00:20:21.76 bitrate=N/A speed=20.8x    frame=29547 fps=498 q=-0.0 size=N/A time=00:20:32.35 bitrate=N/A speed=20.8x    frame=29811 fps=498 q=-0.0 size=N/A time=00:20:43.36 bitrate=N/A speed=20.8x    frame=30086 fps=498 q=-0.0 size=N/A time=00:20:54.83 bitrate=N/A speed=20.8x    frame=30343 fps=498 q=-0.0 size=N/A time=00:21:05.55 bitrate=N/A speed=20.8x    frame=30593 fps=498 q=-0.0 size=N/A time=00:21:15.98 bitrate=N/A speed=20.8x    frame=30865 fps=498 q=-0.0 size=N/A time=00:21:27.32 bitrate=N/A speed=20.8x    frame=31135 fps=499 q=-0.0 size=N/A time=00:21:38.58 bitrate=N/A speed=20.8x    frame=31389 fps=499 q=-0.0 size=N/A time=00:21:49.18 bitrate=N/A speed=20.8x    frame=31647 fps=499 q=-0.0 size=N/A time=00:21:59.94 bitrate=N/A speed=20.8x    frame=31903 fps=499 q=-0.0 size=N/A time=00:22:10.62 bitrate=N/A speed=20.8x    frame=32158 fps=499 q=-0.0 size=N/A time=00:22:21.25 bitrate=N/A speed=20.8x    frame=32409 fps=499 q=-0.0 size=N/A time=00:22:31.72 bitrate=N/A speed=20.8x    frame=32630 fps=498 q=-0.0 size=N/A time=00:22:40.94 bitrate=N/A speed=20.8x    frame=32914 fps=498 q=-0.0 size=N/A time=00:22:52.78 bitrate=N/A speed=20.8x    frame=33189 fps=499 q=-0.0 size=N/A time=00:23:04.25 bitrate=N/A speed=20.8x    frame=33424 fps=498 q=-0.0 size=N/A time=00:23:14.05 bitrate=N/A speed=20.8x    frame=33659 fps=498 q=-0.0 size=N/A time=00:23:23.86 bitrate=N/A speed=20.8x    frame=33924 fps=498 q=-0.0 size=N/A time=00:23:34.91 bitrate=N/A speed=20.8x    frame=34193 fps=498 q=-0.0 size=N/A time=00:23:46.13 bitrate=N/A speed=20.8x    [Parsed_ssim_10 @ 00000285d169d9c0] SSIM Y:0.995245 (23.228126) U:0.994656 (22.721711) V:0.994740 (22.789767) All:0.995062 (23.064840)
[out#0/null @ 00000285c4916540] video:14697KiB audio:267508KiB subtitle:0KiB other streams:0KiB global headers:0KiB muxing overhead: unknown
frame=34204 fps=498 q=-0.0 Lsize=N/A time=00:23:46.59 bitrate=N/A speed=20.8x    
